<svg width="135" height="120" viewBox="0 0 135 120" fill="none" xmlns="http://www.w3.org/2000/svg">
<path d="M53.9604 68.1943H23.9404C22.1344 68.1943 20.6704 69.6583 20.6704 71.4642V101.484C20.6704 103.29 22.1344 104.754 23.9404 104.754H53.9604C55.7664 104.754 57.2304 103.29 57.2304 101.484V71.4642C57.2304 69.6583 55.7664 68.1943 53.9604 68.1943Z" stroke="#F4F4F4" stroke-width="1.2" stroke-linecap="round" stroke-linejoin="round"/>
<path d="M38.9501 94.1051C43.1695 94.1051 46.5901 90.6845 46.5901 86.4651C46.5901 82.2456 43.1695 78.8252 38.9501 78.8252C34.7306 78.8252 31.3101 82.2456 31.3101 86.4651C31.3101 90.6845 34.7306 94.1051 38.9501 94.1051Z" stroke="#5BA167" stroke-width="1.2" stroke-linecap="round" stroke-linejoin="round"/>
<path d="M75.9801 31.2351C66.4501 21.3751 53.0901 15.2451 38.2901 15.2451C23.4901 15.2451 10.1401 21.3851 0.600098 31.2351" stroke="#F4F4F4" stroke-width="1.2" stroke-linecap="round" stroke-linejoin="round"/>
<path d="M66.04 41.8047C59.14 34.6647 49.48 30.2246 38.77 30.2246C28.06 30.2246 18.4 34.6647 11.5 41.8047" stroke="#F4F4F4" stroke-width="1.2" stroke-linecap="round" stroke-linejoin="round"/>
<path d="M55.6901 53.275C51.2901 48.715 45.1201 45.875 38.2901 45.875C31.4601 45.875 25.2901 48.715 20.8901 53.275" stroke="#F4F4F4" stroke-width="1.2" stroke-linecap="round" stroke-linejoin="round"/>
</svg>
