<svg width="135" height="120" viewBox="0 0 135 120" fill="none" xmlns="http://www.w3.org/2000/svg">
<path d="M44.2301 105.555H5.6001C2.8401 105.555 0.600098 103.315 0.600098 100.555V61.9248C0.600098 59.1648 2.8401 56.9248 5.6001 56.9248H35.5901C36.9801 56.9248 38.3201 57.5048 39.2601 58.5348L47.9001 67.8748C48.7601 68.7948 49.2301 70.0148 49.2301 71.2748V100.565C49.2301 103.325 46.9901 105.565 44.2301 105.565V105.555Z" stroke="#F4F4F4" stroke-width="1.2" stroke-linecap="round" stroke-linejoin="round"/>
<path d="M33.3899 69.875H16.4399C14.772 69.875 13.4199 71.2271 13.4199 72.895V89.585C13.4199 91.2529 14.772 92.605 16.4399 92.605H33.3899C35.0578 92.605 36.4099 91.2529 36.4099 89.585V72.895C36.4099 71.2271 35.0578 69.875 33.3899 69.875Z" stroke="#5BA167" stroke-width="1.2" stroke-linecap="round" stroke-linejoin="round"/>
<path d="M37.4199 49.145C37.4199 38.325 46.1899 29.5449 57.0199 29.5449C67.8499 29.5449 76.6199 38.315 76.6199 49.145C76.6199 59.975 67.8499 68.7449 57.0199 68.7449" stroke="#F4F4F4" stroke-width="1.2" stroke-linecap="round" stroke-linejoin="round"/>
<path d="M20.8999 49.6755C20.8999 30.2155 36.6799 14.4355 56.1399 14.4355C75.5999 14.4355 91.3799 30.2155 91.3799 49.6755C91.3799 69.1355 75.5999 84.9155 56.1399 84.9155" stroke="#F4F4F4" stroke-width="1.2" stroke-linecap="round" stroke-linejoin="round"/>
<path d="M57.1801 55.5446C60.7092 55.5446 63.5701 52.6837 63.5701 49.1546C63.5701 45.6255 60.7092 42.7646 57.1801 42.7646C53.651 42.7646 50.79 45.6255 50.79 49.1546C50.79 52.6837 53.651 55.5446 57.1801 55.5446Z" stroke="#5BA167" stroke-width="1.2" stroke-linecap="round" stroke-linejoin="round"/>
</svg>
